<svg xmlns="http://www.w3.org/2000/svg" viewBox="0 0 529.78 201.63">
  <g id="Calque_2" data-name="Calque 2">
    <g id="Calque_1-2" data-name="Calque 1">
      <path d="M98.31,41.41a50.82,50.82,0,0,1,5-12.67,15.46,15.46,0,0,1,5.55-5.86,5.46,5.46,0,0,1,4.3-.77,4.4,4.4,0,0,1,2.26,7c-2.18,3.11-4.48,6.15-6.36,9.43a50.21,50.21,0,0,0-6.78,24.1c10.05-7,20.86-9.86,32.81-6.48,9.11,2.58,15.76,8.44,21.1,16.36H128.78c-3.42,0-4.93,1.5-4.93,4.9,0,8.56,0,17.13,0,25.7a2.68,2.68,0,0,1-.61,1.59,6.37,6.37,0,0,0,9,9,6.26,6.26,0,0,0,.7-8.7,3.47,3.47,0,0,1-.8-2.39c0-6.84,0-13.68,0-20.51V80.75h1.14c8.61,0,17.21,0,25.82,0a1.78,1.78,0,0,1,2,1.29,73.38,73.38,0,0,1,4.31,16.62,86.48,86.48,0,0,1-4.78,42.07,1.39,1.39,0,0,1-1,.72q-13,.06-26.05,0a2.4,2.4,0,0,1-1.36-.65,6.53,6.53,0,0,0-7.61-.59,6.38,6.38,0,0,0-2.72,7.21,6.47,6.47,0,0,0,6.23,4.57,6.67,6.67,0,0,0,4.27-1.74,2.05,2.05,0,0,1,1.17-.53c7.38,0,14.75,0,22.13,0a4.69,4.69,0,0,1,.57.08,5.18,5.18,0,0,1-.31,1.22c-5.42,9.63-12.41,17.79-22.07,23.41-6.51,3.8-13.51,5.87-21.1,5.19a76.8,76.8,0,0,1-8.4-1.73c-.63-.13-.75-.49-.75-1.07,0-4,0-8.06.06-12.1a1.92,1.92,0,0,1,.47-1.18,6.38,6.38,0,1,0-9.35-.14,2.41,2.41,0,0,1,.54,1.41c0,3.72,0,7.45,0,11.18,0,.79-.35,1.06-1,1.3-11.92,4.48-23,2.56-33.48-4.3a59,59,0,0,1-15.13-14.7c.53,0,.93-.06,1.33-.06H62c3,0,4.73-1.73,4.74-4.71,0-8.6,0-17.21,0-25.81a2.91,2.91,0,0,1,.62-1.72,6.39,6.39,0,0,0-6.4-10.4A6.38,6.38,0,0,0,57.83,126a2.2,2.2,0,0,1,.55,1.28c0,7.34,0,14.67,0,22,0,.15,0,.3,0,.52-.32,0-.61.06-.9.06-5.3,0-10.61,0-15.91,0a1.39,1.39,0,0,1-1.47-.91,84.16,84.16,0,0,1-8.46-27.64,82.93,82.93,0,0,1,1-28.15c1.87-8.77,5.13-16.93,10.7-24,1.44-1.83,3.09-3.5,4.83-5.46.06.54.12.77.12,1v26a4.06,4.06,0,0,0,4.36,4.39q12.9,0,25.81,0a2.76,2.76,0,0,1,2.08.67,6.26,6.26,0,0,0,8.8-.45,6.37,6.37,0,0,0-8.94-9.07,2.33,2.33,0,0,1-1.36.62c-7.15,0-14.29,0-21.44,0-.33,0-.67,0-1.12,0V85.72c0-8.76,0-17.52,0-26.28a1.63,1.63,0,0,1,1.2-1.76,35.26,35.26,0,0,1,29.85.64C90,59.5,92.33,61,94.81,62.39c.34-2.89.69-5.84,1-8.6H89.91a14.85,14.85,0,0,1-13.1-6.94c-4.45-6.58-7.78-13.72-11-20.93a16,16,0,0,1-.62-1.48,1.27,1.27,0,0,1,1.55-1.71C75.37,25.53,84,28.26,92,32.86,95.16,34.72,97.12,37.56,98.31,41.41Z" style="fill: #002057"/>
      <g>
        <path d="M18.38,8.66c.44,6-3.76,10.28-9.7,10,0,.34-.06.68-.06,1V34.46c0,2.72-1.73,4.62-4.24,4.65A4.25,4.25,0,0,1,.05,34.55C0,25.32,0,16.08,0,6.84,0,6,0,5.24,0,4.45A4.29,4.29,0,0,1,4.63,0H45.29c.64,0,1.28,0,1.92,0a4.28,4.28,0,0,1,4.37,4.3,4.27,4.27,0,0,1-4.46,4.32H19.06C18.86,8.61,18.67,8.64,18.38,8.66Z" style="fill: #002057"/>
        <path d="M18.34,193H23.7c7.76,0,15.52,0,23.28,0a4.36,4.36,0,0,1,4.48,3.24,4.18,4.18,0,0,1-2,4.74,4.82,4.82,0,0,1-2.15.6q-21.54,0-43.08,0a4.07,4.07,0,0,1-4.17-4.18c0-1.55-.07-3.11-.07-4.66,0-8.36,0-16.72,0-25.08,0-2,.48-3.67,2.33-4.65a4.24,4.24,0,0,1,6.27,3.7c.08,3.56,0,7.12,0,10.68v5.65a8.74,8.74,0,0,1,7.24,2.53C17.92,187.56,18.54,190.06,18.34,193Z" style="fill: #002057"/>
        <g>
          <path d="M188.52,18.66c-6.34.31-10.31-4.37-9.76-10H150.25c-2.83,0-4.71-1.72-4.7-4.29S147.42,0,150.24,0h42.11c3,0,4.7,1.71,4.7,4.67q0,14.94,0,29.88a4.28,4.28,0,0,1-8.32,1.66,5.38,5.38,0,0,1-.21-1.65c0-4.92,0-9.84,0-14.76Z" style="fill: #002057"/>
          <path d="M178.7,193c-.36-5.78,3.46-10.31,9.75-10,0-.38.06-.76.06-1.15,0-4.91.09-9.83,0-14.75a4.4,4.4,0,0,1,4.22-4.57,4.28,4.28,0,0,1,4.34,4.55q0,15,0,30a4.22,4.22,0,0,1-4.55,4.57q-21.23,0-42.45,0c-3.3,0-5.18-2.59-4.23-5.76.51-1.74,2.3-2.84,4.62-2.84H178.7Z" style="fill: #002057"/>
        </g>
      </g>
      <g>
        <g>
          <path d="M283,76.7l-3.38-8.41H261.3L258,76.7h-2.54l13.76-34.22h2.59L285.53,76.7Zm-4.3-10.85L270.45,45l-8.23,20.83Z" style="fill: #002057"/>
          <path d="M305.25,52.55,292.06,86.77h-2.28l4-10.36-8.68-23.86h2.32l5,14.27,2.54,7,2.5-7,5.43-14.23Z" style="fill: #002057"/>
          <path d="M308.4,64.67c0-7.67,4.91-12.56,11-12.56s11,4.89,11,12.56S325.49,77,319.4,77,308.4,72.35,308.4,64.67Zm19.9,0c0-6.25-4-10.31-8.9-10.31s-8.9,4.06-8.9,10.31,4,10,8.9,10S328.3,70.93,328.3,64.67Z" style="fill: #002057"/>
          <path d="M352.79,76.7V72.35a8.45,8.45,0,0,1-7.71,4.74c-5.79,0-9.77-4-9.77-10.66V52.5h2.14V66.38c0,5.48,3,8.41,7.72,8.36,4.47,0,7.58-3.81,7.58-8.8V52.5h2.15V76.7Z" style="fill: #002057"/>
          <path d="M362.65,42.48V57.83a9.44,9.44,0,0,1,9-5.67c6.05,0,10.87,4.5,10.87,12.46s-4.77,12.47-10.82,12.47a10,10,0,0,1-9-5.72V76.7h-2.1V42.48Zm0,22.1c0,6,3.77,10.16,8.86,10.16,4.86,0,8.85-3.42,8.85-10.12s-4-10.16-8.85-10.16S362.69,58.56,362.69,64.58Z" style="fill: #002057"/>
          <path d="M390.52,58.76h17.66v2.49H390.52v15.5h-2.37V42.48h20.64v2.64H390.52Z" style="fill: #002057"/>
          <path d="M416.46,44.68a1.74,1.74,0,1,1-3.46,0A1.74,1.74,0,1,1,416.46,44.68Zm-2.85,7.77V76.7h2.15V52.45Z" style="fill: #002057"/>
          <path d="M424,42.48V76.7h-2.15V42.48Z" style="fill: #002057"/>
          <path d="M432.19,42.48V76.7H430V42.48Z" style="fill: #002057"/>
          <path d="M459,52.55V76.7h-2.15V71.57A9.92,9.92,0,0,1,448,77.09c-6.05,0-11-5.08-11-12.47S442,52.26,448,52.26a9.65,9.65,0,0,1,8.85,5.57V52.55ZM439.16,64.62c0,6.07,3.94,10.12,8.85,10.12,12.05,0,12.05-20.19,0-20.19C443.1,54.55,439.16,58.56,439.16,64.62Z" style="fill: #002057"/>
          <path d="M467,42.48V76.7h-2.15V42.48Z" style="fill: #002057"/>
          <path d="M475.83,44.68a1.74,1.74,0,1,1-3.46,0A1.74,1.74,0,1,1,475.83,44.68ZM473,52.45V76.7h2.14V52.45Z" style="fill: #002057"/>
        </g>
        <text transform="translate(201.47 144.64) scale(0.99 1.12)" style="font-size: 61.46171188354492px;fill: #002057;font-family: LucidaConsole, Lucida Console">PORTFOLIO</text>
      </g>
    </g>
  </g>
</svg>
